<svg width="23" height="16" viewBox="0 0 23 16" fill="none" xmlns="http://www.w3.org/2000/svg">
<path fill-rule="evenodd" clip-rule="evenodd" d="M1.55253 0.0640904C1.17439 0.157711 0.891319 0.31758 0.606188 0.598618C0.312523 0.888099 0.134995 1.20686 0.0532142 1.59161C-0.0182821 1.92787 -0.0174737 14.0755 0.0540675 14.4061C0.218572 15.1666 0.847577 15.7893 1.61086 15.9475C1.94962 16.0177 21.0523 16.0174 21.3892 15.9472C22.1513 15.7884 22.7878 15.1588 22.9471 14.4061C23.0183 14.0693 23.0173 1.92139 22.946 1.59161C22.7804 0.826293 22.1584 0.210541 21.3892 0.0504939C21.0261 -0.0250865 1.85962 -0.0119343 1.55253 0.0640904ZM16.3277 5.64678C13.9318 8.01883 11.917 9.98832 11.8503 10.0234C11.7836 10.0585 11.626 10.0872 11.5 10.0872C11.3741 10.0872 11.2165 10.0585 11.1497 10.0234C11.083 9.98832 9.06821 8.01883 6.67232 5.64678L2.31617 1.33394H11.5H20.6839L16.3277 5.64678ZM4.25829 10.8759L1.35043 13.7528V7.99888V2.2449L4.25829 5.12189L7.16615 7.99888L4.25829 10.8759ZM21.6496 8.00994V13.7528L18.7418 10.8759L15.834 7.99897L18.7304 5.133C20.3235 3.5567 21.632 2.26703 21.6383 2.26703C21.6445 2.26703 21.6496 4.85134 21.6496 8.00994ZM9.16126 10.013C10.1268 10.9582 10.2515 11.0649 10.577 11.2238L10.934 11.398H11.4977C12.057 11.398 12.0642 11.3967 12.416 11.2305C12.7444 11.0753 12.8495 10.9855 13.8433 10.01L14.916 8.95703L17.8 11.8104L20.684 14.6638H11.5001H2.31626L5.19021 11.8201C6.7709 10.2561 8.07279 8.9764 8.0833 8.9764C8.0938 8.9764 8.57887 9.44286 9.16126 10.013Z" fill="#C9B087"/>
</svg>
