<svg width="25" height="25" viewBox="0 0 14 14" fill="none" xmlns="http://www.w3.org/2000/svg">
    <path fillRule="evenodd" clipRule="evenodd" d="M1.31915 0.0554235C0.832257 0.183318 0.409665 0.524231 0.193894 0.963173C-0.0135015 1.38507 0.000186105 0.958671 0.000186105 7C0.000186105 11.6552 0.00585279 12.4487 0.0402635 12.6137C0.173335 13.2515 0.685581 13.7806 1.32991 13.9459C1.5332 13.998 1.64377 14 4.32353 14H7.10604L7.2453 13.9304C7.44215 13.8321 7.53586 13.6841 7.54897 13.451C7.56145 13.2291 7.48508 13.0662 7.31083 12.9431L7.19424 12.8608L4.39748 12.8471L1.60068 12.8333L1.49118 12.7742C1.35373 12.7001 1.27294 12.6139 1.21874 12.4838C1.18099 12.3932 1.17636 11.7958 1.17636 7C1.17636 2.2042 1.18099 1.60676 1.21874 1.51617C1.27294 1.38605 1.35373 1.29994 1.49118 1.22577L1.60068 1.16667L4.39748 1.15294L7.19424 1.13922L7.31083 1.05686C7.48508 0.933773 7.56145 0.770878 7.54897 0.54902C7.53586 0.315878 7.44215 0.167945 7.2453 0.0695882L7.10604 0L4.31231 0.0015098C1.65382 0.00293725 1.50889 0.00557255 1.31915 0.0554235ZM9.73519 2.93646C9.36379 3.05538 9.19765 3.50376 9.41199 3.80863C9.45202 3.86556 10.0453 4.46762 10.7303 5.14656C11.4154 5.82551 11.98 6.39059 11.985 6.40228C11.9901 6.41398 10.4436 6.42353 8.54839 6.42353H5.10263L4.98207 6.48529C4.73991 6.60937 4.61056 6.88204 4.67607 7.13039C4.72048 7.29869 4.83072 7.43716 4.98207 7.51471L5.10263 7.57647H8.54839C10.4436 7.57647 11.9901 7.58602 11.985 7.59772C11.98 7.60941 11.4154 8.17449 10.7303 8.85344C10.0453 9.53238 9.45202 10.1344 9.41199 10.1914C9.07843 10.6658 9.64416 11.2867 10.1643 11.017C10.2741 10.9601 13.896 7.37226 13.9551 7.26183C14.015 7.15021 14.015 6.84979 13.9551 6.73817C13.8945 6.62499 10.2727 3.03921 10.1599 2.98076C10.0511 2.92433 9.8414 2.90245 9.73519 2.93646Z" fill="#686868" />
</svg>