<svg width="25" height="25" viewBox="0 0 14 14" fill="none" xmlns="http://www.w3.org/2000/svg">
    <path fillRule="evenodd" clipRule="evenodd" d="M3.44875 0.0171874C2.57697 0.122942 1.84766 0.469114 1.22831 1.07122C0.674206 1.60987 0.34046 2.18105 0.146521 2.92271C-0.190261 4.21057 0.0546112 5.4787 0.870005 6.66929C1.39285 7.4327 2.0671 8.13339 3.30722 9.20203C4.09608 9.8818 6.50033 11.8633 6.61704 11.9298C6.72701 11.9925 6.76787 12 7 12C7.23199 12 7.27307 11.9925 7.38296 11.9299C7.5 11.8633 9.9097 9.87712 10.6928 9.20182C11.9363 8.12951 12.6079 7.43167 13.13 6.66929C13.9454 5.4787 14.1903 4.21057 13.8535 2.92271C13.6595 2.18105 13.3258 1.60987 12.7717 1.07122C12.2195 0.534437 11.6284 0.224679 10.8534 0.0660479C10.4664 -0.0132018 9.74943 -0.0201252 9.4086 0.0520424C8.46409 0.252082 7.7379 0.709743 7.07522 1.52256L7 1.61484L6.92478 1.52256C6.27364 0.723881 5.55847 0.266273 4.64756 0.0654401C4.37566 0.00550741 3.7521 -0.0195967 3.44875 0.0171874ZM4.3636 0.823372C5.13873 0.95394 5.80967 1.38864 6.33976 2.10371C6.43134 2.22725 6.54248 2.37702 6.58671 2.43656C6.79036 2.71064 7.20964 2.71064 7.41329 2.43656C7.45752 2.37702 7.56866 2.22725 7.66024 2.10371C8.38485 1.12626 9.39339 0.665798 10.4925 0.810635C11.7127 0.971433 12.6655 1.7977 13.0293 3.01052C13.3169 3.96923 13.1901 4.97588 12.6675 5.88253C12.2296 6.64213 11.4996 7.43647 10.2278 8.53725C9.61187 9.0703 7.02448 11.2204 6.99888 11.2204C6.97382 11.2205 4.39599 9.07664 3.77223 8.53704C1.81651 6.84513 1.04455 5.78827 0.858626 4.54805C0.738542 3.74713 0.911638 2.88463 1.32824 2.20806C1.95856 1.1844 3.18514 0.624838 4.3636 0.823372Z" fill="#686868" />
</svg>