<svg width="20" height="14" viewBox="0 0 14 7" fill="none" xmlns="http://www.w3.org/2000/svg">
<path opacity="0.6" fill-rule="evenodd" clip-rule="evenodd" d="M0.31969 0.0306026C0.0991435 0.117666 -0.0324778 0.344264 0.0148951 0.555439C0.0645222 0.776623 0.730468 1.53397 1.34652 2.06978C2.06424 2.69409 2.7812 3.14661 3.63593 3.51485C6.33376 4.67707 9.44721 4.35665 11.9056 2.66377C12.5562 2.21572 13.3193 1.49142 13.7933 0.871938C13.9674 0.644463 13.9814 0.613471 13.9814 0.45705C13.9814 0.174557 13.7863 0.00569825 13.4599 0.00569825C13.2088 0.00569825 13.1311 0.0546585 12.888 0.365598C11.9186 1.60555 10.5209 2.55783 9.05628 2.97614C6.11422 3.81645 2.99713 2.78633 1.09559 0.345317C1.00286 0.226297 0.886482 0.102623 0.836956 0.0705198C0.723503 -0.00305204 0.457064 -0.0235959 0.31969 0.0306026ZM1.39803 3.31058C1.34251 3.33232 1.01444 3.59849 0.668964 3.90202C-0.00683987 4.49584 -0.0356741 4.53479 0.0176204 4.78175C0.0486752 4.92579 0.249943 5.10086 0.415546 5.12787C0.702912 5.17478 0.741234 5.1528 1.45455 4.53239C2.01727 4.0429 2.12013 3.93998 2.13961 3.84671C2.2209 3.45766 1.79976 3.15316 1.39803 3.31058ZM12.1629 3.30991C11.9381 3.3951 11.8126 3.61774 11.8604 3.84671C11.8799 3.93998 11.9827 4.0429 12.5455 4.53239C13.2588 5.1528 13.2971 5.17478 13.5845 5.12787C13.7501 5.10086 13.9513 4.92579 13.9824 4.78175C14.0357 4.53479 14.0069 4.49584 13.331 3.90199C12.9856 3.59843 12.6542 3.33174 12.5946 3.30938C12.4601 3.25887 12.2971 3.25904 12.1629 3.30991ZM3.82051 4.47901C3.76499 4.50137 3.68676 4.55097 3.64666 4.58925C3.60655 4.6275 3.43469 4.9617 3.26478 5.3319C2.99757 5.91413 2.9581 6.02223 2.97234 6.13271C2.99013 6.27075 3.06446 6.37625 3.21102 6.47142C3.28002 6.51622 3.35445 6.53176 3.50023 6.53176C3.66957 6.53176 3.71419 6.51932 3.82538 6.44104C3.94025 6.36015 3.98816 6.27748 4.26617 5.68015C4.53884 5.09436 4.57652 4.99223 4.56569 4.86882C4.54506 4.63402 4.35399 4.46774 4.08375 4.44939C3.98947 4.44298 3.87915 4.45542 3.82051 4.47901ZM9.74212 4.48065C9.55259 4.5539 9.42248 4.72834 9.42248 4.9092C9.42248 5.02287 10.0134 6.30753 10.1066 6.39653C10.3275 6.60744 10.7174 6.5895 10.9194 6.3591C11.0944 6.15951 11.0812 6.08574 10.7352 5.3319C10.5653 4.9617 10.3935 4.6275 10.3534 4.58919C10.2058 4.44831 9.94537 4.40207 9.74212 4.48065ZM6.77963 4.9471C6.6437 5.00077 6.50286 5.15002 6.47786 5.26691C6.46676 5.31876 6.46238 5.66643 6.4681 6.0395C6.47779 6.67121 6.48328 6.72342 6.54788 6.7986C6.6798 6.95212 6.78727 7 7.00001 7C7.21278 7 7.32031 6.95206 7.45213 6.79851C7.51801 6.72175 7.52151 6.67961 7.52151 5.9611C7.52151 5.24259 7.51801 5.20045 7.45213 5.12368C7.41398 5.07923 7.34319 5.01716 7.29484 4.98576C7.18348 4.91344 6.91582 4.89337 6.77963 4.9471Z" fill="#222222"/>
</svg>
