<svg width="25" height="25" viewBox="0 0 14 14" fill="none" xmlns="http://www.w3.org/2000/svg">
    <path fillRule="evenodd" clipRule="evenodd" d="M5.38349 0.0350149C4.61577 0.152557 3.92985 0.506798 3.39223 1.0634C2.80246 1.674 2.49682 2.37909 2.4548 3.22601C2.3961 4.40887 2.99211 5.53964 4.0197 6.19503C4.52513 6.51737 5.01263 6.68105 5.6031 6.72661C6.69755 6.81105 7.63079 6.47603 8.38418 5.7282C9.12008 4.99773 9.44924 4.09647 9.35805 3.06173C9.27989 2.17484 8.87699 1.40951 8.18067 0.825363C7.6306 0.363848 7.12303 0.13591 6.42365 0.036247C6.08765 -0.0116405 5.69132 -0.0121059 5.38349 0.0350149ZM6.58229 0.896222C7.02137 1.0067 7.35397 1.1942 7.72604 1.54094C8.20749 1.98967 8.45412 2.481 8.51768 3.11821C8.59311 3.87442 8.355 4.56406 7.82927 5.11199C7.50423 5.45073 7.02382 5.73839 6.61369 5.83983C6.01163 5.98872 5.29016 5.92435 4.77342 5.67563C4.06721 5.33574 3.54589 4.70244 3.35411 3.95157C3.28088 3.66485 3.28892 3.01387 3.36929 2.71948C3.58593 1.92625 4.29593 1.18941 5.08387 0.94014C5.50974 0.805431 6.14722 0.78673 6.58229 0.896222ZM2.83027 6.78791C2.40071 6.8321 1.95597 6.98959 1.60462 7.22199C0.727347 7.8022 0.159842 9.09974 0.029232 10.8239C-0.0441413 11.7925 0.0150352 12.2713 0.27038 12.7747C0.41142 13.0528 0.67846 13.3588 0.951487 13.5552C1.15721 13.7033 1.50749 13.8579 1.81322 13.9357L2.06623 14H6.00196H9.9377L10.1907 13.9358C11.0789 13.7106 11.699 13.1256 11.9222 12.3024C12.0376 11.8769 12.0228 10.8643 11.8895 10.0642C11.5932 8.28546 10.8456 7.21756 9.6629 6.88377C9.39248 6.80746 8.90873 6.74942 8.76532 6.77611C8.62814 6.80163 8.43635 6.90143 8.00345 7.17252C7.5371 7.46455 7.46254 7.50258 7.1151 7.62555C6.70339 7.77126 6.39804 7.82761 6.01993 7.82766C5.62399 7.82769 5.32122 7.77488 4.92188 7.63614C4.54478 7.50513 4.52845 7.49675 3.93952 7.13246C3.62897 6.94036 3.3992 6.81732 3.3079 6.79427C3.15184 6.75484 3.15187 6.75484 2.83027 6.78791ZM3.56127 7.87049C4.0915 8.20113 4.31291 8.30772 4.77618 8.45543C5.98405 8.84053 7.21844 8.6547 8.38212 7.91254C8.90875 7.57667 8.89658 7.58168 9.12095 7.60931C10.1414 7.73493 10.7773 8.57024 11.047 10.1394C11.158 10.7853 11.192 11.6867 11.1183 12.0286C10.9995 12.5797 10.6172 12.9675 10.0338 13.1287C9.86323 13.1759 9.64271 13.1786 6.00196 13.1786C2.35176 13.1786 2.14101 13.176 1.96783 13.1284C1.54831 13.0131 1.18592 12.7349 1.01674 12.3983C0.870495 12.1073 0.835664 11.8639 0.856045 11.2757C0.876624 10.6819 0.906423 10.4058 1.00243 9.92039C1.07726 9.54206 1.24852 9.00544 1.36845 8.77369C1.73082 8.07337 2.2227 7.69027 2.86274 7.60989C2.96582 7.59693 3.06014 7.58478 3.07234 7.58286C3.08451 7.58097 3.30455 7.7104 3.56127 7.87049Z" fill="#686868" />
</svg>