<svg width="20" height="14" viewBox="0 0 16 10" fill="none" xmlns="http://www.w3.org/2000/svg">
<path opacity="0.6" fill-rule="evenodd" clipRule="evenodd" d="M7.34402 0.011593C5.4928 0.18456 3.91462 0.833673 2.42222 2.03589C2.00098 2.37525 1.19929 3.18236 0.859015 3.6097C0.487689 4.07607 0.0331485 4.76312 0.00834967 4.89552C-0.00278322 4.95494 -0.00278322 5.05223 0.00834967 5.11165C0.0331485 5.24406 0.487689 5.9311 0.859015 6.39748C1.19929 6.82482 2.00098 7.63193 2.42222 7.97128C3.77877 9.06406 5.21022 9.69989 6.8593 9.94211C7.38467 10.0193 8.61679 10.0193 9.14217 9.94211C10.2312 9.78215 11.2067 9.45967 12.113 8.96007C13.5068 8.19177 14.7743 7.01561 15.6948 5.63632C16.1017 5.02671 16.1017 4.98047 15.6948 4.37086C15.2942 3.77064 14.9331 3.33236 14.3809 2.77656C12.8785 1.26421 11.1919 0.378734 9.25162 0.0836993C8.84183 0.0213659 7.70077 -0.0217663 7.34402 0.011593ZM8.7901 1.04056C10.2328 1.19392 11.6484 1.7958 12.8754 2.77744C13.5245 3.29681 14.3185 4.13834 14.7522 4.76682L14.9149 5.00255L14.7878 5.19002C14.2483 5.98576 13.3141 6.93583 12.4883 7.52853C10.9531 8.63036 9.1063 9.14979 7.326 8.98049C5.52219 8.80893 3.87634 8.01034 2.42225 6.60108C2.02318 6.21433 1.51279 5.62222 1.24888 5.23983L1.08583 5.00359L1.24285 4.77649C1.54882 4.3339 1.82651 4.01051 2.35392 3.48259C3.10842 2.72739 3.79672 2.22333 4.67425 1.78343C5.94828 1.14474 7.36488 0.889053 8.7901 1.04056ZM7.4798 2.04288C6.85023 2.15733 6.33633 2.43173 5.8731 2.90085C5.47038 3.30865 5.21104 3.77208 5.07084 4.33443C4.99657 4.63234 4.99657 5.37483 5.07084 5.67275C5.21104 6.2351 5.47038 6.69852 5.8731 7.10632C6.42865 7.66892 7.07723 7.96082 7.86001 8.00048C8.72596 8.04439 9.48178 7.74792 10.1112 7.1175C10.5394 6.68853 10.7855 6.25458 10.9307 5.67243C11.0049 5.37486 11.0049 4.63219 10.9306 4.33443C10.8528 4.0222 10.707 3.67451 10.5413 3.4061C10.3448 3.08792 9.89692 2.64441 9.56803 2.44241C8.95438 2.06549 8.17542 1.91646 7.4798 2.04288ZM8.42291 3.0456C9.09857 3.18646 9.70191 3.74308 9.91706 4.42411C10.0153 4.73505 10.0153 5.27212 9.91706 5.58307C9.72039 6.20559 9.20105 6.72581 8.57927 6.92314C8.40202 6.9794 8.28894 6.99234 7.9851 6.99111C7.66115 6.9898 7.57846 6.97834 7.38045 6.9072C7.05259 6.78939 6.83059 6.64831 6.57838 6.39748C5.80396 5.62736 5.8104 4.37809 6.5928 3.59291C7.0778 3.10618 7.74965 2.90527 8.42291 3.0456Z" fill="#222222"/>
</svg>
