<svg width="12" height="22" viewBox="0 0 12 22" fill="none" xmlns="http://www.w3.org/2000/svg">
<path fill-rule="evenodd" clip-rule="evenodd" d="M10.518 0.0656986C10.3509 0.123185 9.67494 0.78839 5.24547 5.25418C0.580804 9.95705 0.157696 10.3953 0.0801634 10.604C-0.0267211 10.8916 -0.0267211 11.1086 0.0801634 11.3962C0.157696 11.6049 0.580804 12.0432 5.24547 16.7461C10.1061 21.6467 10.3362 21.872 10.5558 21.9434C11.47 22.241 12.2943 21.31 11.898 20.4272C11.8499 20.3199 10.2932 18.7168 7.24241 15.633L2.65915 11.0001L7.24241 6.36719C10.2285 3.34873 11.8503 1.67933 11.8964 1.57657C12.1579 0.993185 11.8819 0.300032 11.3005 0.0804896C11.0296 -0.0218 10.7856 -0.0264437 10.518 0.0656986Z" fill="#686868"/>
</svg>
