<svg width="67" height="17" viewBox="0 0 67 17" fill="none" xmlns="http://www.w3.org/2000/svg">
<path d="M29.103 3.878V14H27.444V7.462C27.444 7.20067 27.458 6.91833 27.486 6.615L24.427 12.362C24.2823 12.6373 24.0607 12.775 23.762 12.775H23.496C23.1973 12.775 22.9757 12.6373 22.831 12.362L19.737 6.594C19.751 6.748 19.7627 6.89967 19.772 7.049C19.7813 7.19833 19.786 7.336 19.786 7.462V14H18.127V3.878H19.548C19.632 3.878 19.7043 3.88033 19.765 3.885C19.8257 3.88967 19.8793 3.90133 19.926 3.92C19.9773 3.93867 20.0217 3.969 20.059 4.011C20.101 4.053 20.1407 4.109 20.178 4.179L23.209 9.8C23.2883 9.94933 23.3607 10.1033 23.426 10.262C23.496 10.4207 23.5637 10.584 23.629 10.752C23.6943 10.5793 23.762 10.4137 23.832 10.255C23.902 10.0917 23.9767 9.93533 24.056 9.786L27.045 4.179C27.0823 4.109 27.122 4.053 27.164 4.011C27.206 3.969 27.2503 3.93867 27.297 3.92C27.3483 3.90133 27.4043 3.88967 27.465 3.885C27.5257 3.88033 27.598 3.878 27.682 3.878H29.103ZM34.0476 6.706C34.5796 6.706 35.0626 6.79233 35.4966 6.965C35.9353 7.13767 36.3086 7.38267 36.6166 7.7C36.9293 8.01733 37.1696 8.40467 37.3376 8.862C37.5056 9.31933 37.5896 9.83033 37.5896 10.395C37.5896 10.9643 37.5056 11.4777 37.3376 11.935C37.1696 12.3923 36.9293 12.782 36.6166 13.104C36.3086 13.426 35.9353 13.6733 35.4966 13.846C35.0626 14.0187 34.5796 14.105 34.0476 14.105C33.511 14.105 33.0233 14.0187 32.5846 13.846C32.146 13.6733 31.7703 13.426 31.4576 13.104C31.1496 12.782 30.9093 12.3923 30.7366 11.935C30.5686 11.4777 30.4846 10.9643 30.4846 10.395C30.4846 9.83033 30.5686 9.31933 30.7366 8.862C30.9093 8.40467 31.1496 8.01733 31.4576 7.7C31.7703 7.38267 32.146 7.13767 32.5846 6.965C33.0233 6.79233 33.511 6.706 34.0476 6.706ZM34.0476 12.775C34.645 12.775 35.086 12.5743 35.3706 12.173C35.66 11.7717 35.8046 11.1837 35.8046 10.409C35.8046 9.63433 35.66 9.044 35.3706 8.638C35.086 8.232 34.645 8.029 34.0476 8.029C33.441 8.029 32.9906 8.23433 32.6966 8.645C32.4073 9.051 32.2626 9.639 32.2626 10.409C32.2626 11.179 32.4073 11.767 32.6966 12.173C32.9906 12.5743 33.441 12.775 34.0476 12.775ZM44.0537 8.337C44.0024 8.40233 43.951 8.45367 43.8997 8.491C43.853 8.52833 43.783 8.547 43.6897 8.547C43.601 8.547 43.5147 8.52133 43.4307 8.47C43.3467 8.414 43.2464 8.35333 43.1297 8.288C43.013 8.218 42.873 8.15733 42.7097 8.106C42.551 8.05 42.3527 8.022 42.1147 8.022C41.8114 8.022 41.5454 8.078 41.3167 8.19C41.088 8.29733 40.8967 8.45367 40.7427 8.659C40.5934 8.86433 40.4814 9.114 40.4067 9.408C40.332 9.69733 40.2947 10.0263 40.2947 10.395C40.2947 10.7777 40.3344 11.1183 40.4137 11.417C40.4977 11.7157 40.6167 11.9677 40.7707 12.173C40.9247 12.3737 41.1114 12.5277 41.3307 12.635C41.55 12.7377 41.7974 12.789 42.0727 12.789C42.348 12.789 42.5697 12.7563 42.7377 12.691C42.9104 12.621 43.055 12.5463 43.1717 12.467C43.2884 12.383 43.3887 12.3083 43.4727 12.243C43.5614 12.173 43.6594 12.138 43.7667 12.138C43.9067 12.138 44.0117 12.1917 44.0817 12.299L44.5787 12.929C44.3874 13.153 44.1797 13.342 43.9557 13.496C43.7317 13.6453 43.4984 13.7667 43.2557 13.86C43.0177 13.9487 42.7704 14.0117 42.5137 14.049C42.2617 14.0863 42.0097 14.105 41.7577 14.105C41.3144 14.105 40.8967 14.0233 40.5047 13.86C40.1127 13.692 39.7697 13.4493 39.4757 13.132C39.1817 12.8147 38.9484 12.4273 38.7757 11.97C38.6077 11.508 38.5237 10.983 38.5237 10.395C38.5237 9.86767 38.5984 9.38 38.7477 8.932C38.9017 8.47933 39.1257 8.08967 39.4197 7.763C39.7137 7.43167 40.0777 7.17267 40.5117 6.986C40.9457 6.79933 41.445 6.706 42.0097 6.706C42.5464 6.706 43.0154 6.79233 43.4167 6.965C43.8227 7.13767 44.1867 7.385 44.5087 7.707L44.0537 8.337ZM49.9536 7.273C50.0376 7.13767 50.1519 7.028 50.2966 6.944C50.4413 6.86 50.5953 6.818 50.7586 6.818H52.1166L50.4436 9.485C50.3269 9.67167 50.2079 9.82333 50.0866 9.94C49.9653 10.052 49.8183 10.1407 49.6456 10.206C49.8789 10.276 50.0703 10.381 50.2196 10.521C50.3689 10.6563 50.5043 10.829 50.6256 11.039L52.3056 14H51.1086C50.8053 14 50.5696 13.9487 50.4016 13.846C50.2336 13.7433 50.0913 13.5963 49.9746 13.405L48.9176 11.417C48.8243 11.2443 48.7029 11.116 48.5536 11.032C48.4089 10.948 48.2386 10.906 48.0426 10.906H47.3916V14H45.6626V6.818H47.3916V9.779H47.9516C48.1476 9.779 48.3039 9.744 48.4206 9.674C48.5419 9.59933 48.6446 9.48733 48.7286 9.338L49.9536 7.273ZM56.1972 12.817C56.5612 12.817 56.8482 12.7283 57.0582 12.551C57.2728 12.3737 57.3802 12.131 57.3802 11.823C57.3802 11.6923 57.3615 11.571 57.3242 11.459C57.2915 11.3423 57.2308 11.242 57.1422 11.158C57.0535 11.074 56.9322 11.0087 56.7782 10.962C56.6288 10.9153 56.4375 10.892 56.2042 10.892H54.9092V12.817H56.1972ZM54.9092 7.945V9.828H56.0432C56.2112 9.828 56.3652 9.80467 56.5052 9.758C56.6452 9.70667 56.7665 9.63667 56.8692 9.548C56.9718 9.45467 57.0512 9.34733 57.1072 9.226C57.1632 9.1 57.1912 8.96233 57.1912 8.813C57.1912 8.70567 57.1725 8.60067 57.1352 8.498C57.0978 8.39067 57.0348 8.29733 56.9462 8.218C56.8575 8.134 56.7385 8.06867 56.5892 8.022C56.4445 7.97067 56.2625 7.945 56.0432 7.945H54.9092ZM56.0922 6.818C56.5448 6.818 56.9345 6.86233 57.2612 6.951C57.5925 7.03967 57.8655 7.161 58.0802 7.315C58.2948 7.469 58.4535 7.65333 58.5562 7.868C58.6588 8.078 58.7102 8.30667 58.7102 8.554C58.7102 8.708 58.6892 8.869 58.6472 9.037C58.6098 9.20033 58.5398 9.359 58.4372 9.513C58.3392 9.667 58.2038 9.807 58.0312 9.933C57.8585 10.059 57.6392 10.157 57.3732 10.227C57.6112 10.2783 57.8282 10.3507 58.0242 10.444C58.2202 10.5327 58.3882 10.647 58.5282 10.787C58.6682 10.9223 58.7755 11.0833 58.8502 11.27C58.9295 11.452 58.9692 11.6573 58.9692 11.886C58.9692 12.25 58.8922 12.565 58.7382 12.831C58.5888 13.097 58.3858 13.3163 58.1292 13.489C57.8772 13.6617 57.5832 13.79 57.2472 13.874C56.9158 13.958 56.5682 14 56.2042 14H53.2642V6.818H56.0922ZM64.0992 10.934C63.5998 10.9573 63.1798 11.0017 62.8392 11.067C62.4985 11.1277 62.2255 11.207 62.0202 11.305C61.8148 11.403 61.6678 11.5173 61.5792 11.648C61.4905 11.7787 61.4462 11.921 61.4462 12.075C61.4462 12.3783 61.5348 12.5953 61.7122 12.726C61.8942 12.8567 62.1298 12.922 62.4192 12.922C62.7738 12.922 63.0795 12.859 63.3362 12.733C63.5975 12.6023 63.8518 12.4063 64.0992 12.145V10.934ZM60.1372 7.819C60.9632 7.063 61.9572 6.685 63.1192 6.685C63.5392 6.685 63.9148 6.755 64.2462 6.895C64.5775 7.03033 64.8575 7.22167 65.0862 7.469C65.3148 7.71167 65.4875 8.00333 65.6042 8.344C65.7255 8.68467 65.7862 9.058 65.7862 9.464V14H65.0022C64.8388 14 64.7128 13.9767 64.6242 13.93C64.5355 13.8787 64.4655 13.7783 64.4142 13.629L64.2602 13.111C64.0782 13.2743 63.9008 13.419 63.7282 13.545C63.5555 13.6663 63.3758 13.769 63.1892 13.853C63.0025 13.937 62.8018 14 62.5872 14.042C62.3772 14.0887 62.1438 14.112 61.8872 14.112C61.5838 14.112 61.3038 14.0723 61.0472 13.993C60.7905 13.909 60.5688 13.7853 60.3822 13.622C60.1955 13.4587 60.0508 13.2557 59.9482 13.013C59.8455 12.7703 59.7942 12.488 59.7942 12.166C59.7942 11.984 59.8245 11.8043 59.8852 11.627C59.9458 11.445 60.0438 11.2723 60.1792 11.109C60.3192 10.9457 60.4988 10.7917 60.7182 10.647C60.9375 10.5023 61.2058 10.3763 61.5232 10.269C61.8452 10.1617 62.2185 10.0753 62.6432 10.01C63.0678 9.94 63.5532 9.898 64.0992 9.884V9.464C64.0992 8.98333 63.9965 8.62867 63.7912 8.4C63.5858 8.16667 63.2895 8.05 62.9022 8.05C62.6222 8.05 62.3888 8.08267 62.2022 8.148C62.0202 8.21333 61.8592 8.288 61.7192 8.372C61.5792 8.45133 61.4508 8.52367 61.3342 8.589C61.2222 8.65433 61.0962 8.687 60.9562 8.687C60.8348 8.687 60.7322 8.65667 60.6482 8.596C60.5642 8.53067 60.4965 8.456 60.4452 8.372L60.1372 7.819Z" fill="#C9B087"/>
<path fill-rule="evenodd" clip-rule="evenodd" d="M5.68804 1.04154C7.57932 1.30985 9.15231 2.58451 9.74524 4.32933C10.2614 5.84816 10.0106 7.26716 8.83342 9.48926C8.12973 10.8175 7.27833 12.1087 6.09612 13.6406C5.60102 14.2821 5.01372 15 4.98399 15C4.97196 15 4.81224 14.8125 4.62905 14.5834C2.44896 11.8567 0.79458 9.13163 0.240652 7.35512C0.0306234 6.68161 -0.000941277 6.48022 2.09808e-05 5.8203C0.000743866 5.30875 0.0108843 5.17603 0.0692291 4.91402C0.484292 3.05034 1.85309 1.64026 3.71816 1.15511C4.30095 1.0035 5.09656 0.957632 5.68804 1.04154ZM4.40843 3.81898C3.68672 4.03219 3.15623 4.55058 2.92884 5.26484C2.82957 5.57663 2.82969 6.0647 2.92911 6.37576C3.17449 7.14364 3.71819 7.65185 4.49701 7.84141C4.98769 7.96084 5.61071 7.87664 6.04726 7.63192C6.4934 7.38181 6.82939 6.98565 7.01832 6.48703C7.09277 6.2906 7.09927 6.23821 7.09945 5.83492C7.09963 5.42934 7.09331 5.37883 7.01528 5.16252C6.82563 4.63662 6.42814 4.1978 5.92954 3.96384C5.56052 3.79068 5.31892 3.74215 4.90383 3.75788C4.71953 3.76487 4.49999 3.79194 4.40843 3.81898Z" fill="#C9B087"/>
</svg>
