<svg width="18" height="16" viewBox="0 0 18 16" fill="none" xmlns="http://www.w3.org/2000/svg">
<path fill-rule="evenodd" clip-rule="evenodd" d="M4.4341 0.0229165C3.31325 0.163922 2.37557 0.625485 1.57926 1.42829C0.866836 2.14649 0.437734 2.90807 0.188384 3.89694C-0.244622 5.6141 0.0702144 7.30493 1.11858 8.89239C1.79081 9.91026 2.6577 10.8445 4.25213 12.2694C5.26638 13.1757 8.35756 15.8177 8.50763 15.9064C8.64901 15.99 8.70155 16 9 16C9.29827 16 9.3511 15.99 9.49237 15.9066C9.64286 15.8177 12.741 13.1695 13.7479 12.2691C15.3467 10.8393 16.2101 9.90889 16.8814 8.89239C17.9298 7.30493 18.2446 5.6141 17.8116 3.89694C17.5623 2.90807 17.1332 2.14649 16.4207 1.42829C15.7108 0.712583 14.9508 0.299572 13.9544 0.0880638C13.4568 -0.0176024 12.535 -0.0268336 12.0968 0.0693899C10.8824 0.33611 9.94873 0.946324 9.09672 2.03008L9 2.15312L8.90328 2.03008C8.06611 0.965174 7.14661 0.35503 5.97543 0.0872535C5.62585 0.00734321 4.82413 -0.0261289 4.4341 0.0229165ZM5.61034 1.09783C6.60694 1.27192 7.46957 1.85152 8.15112 2.80494C8.26886 2.96966 8.41176 3.16937 8.46863 3.24875C8.73046 3.61419 9.26954 3.61419 9.53137 3.24875C9.58824 3.16937 9.73114 2.96966 9.84888 2.80494C10.7805 1.50168 12.0772 0.88773 13.4904 1.08085C15.0592 1.29524 16.2842 2.39693 16.752 4.01402C17.1217 5.29231 16.9587 6.6345 16.2867 7.84338C15.7238 8.85617 14.7852 9.9153 13.15 11.383C12.3581 12.0937 9.03148 14.9605 8.99856 14.9606C8.96634 14.9606 5.65198 12.1022 4.85001 11.3827C2.33551 9.12684 1.34299 7.7177 1.10395 6.06407C0.949554 4.99617 1.17211 3.84617 1.70774 2.94408C2.51814 1.57919 4.09517 0.833118 5.61034 1.09783Z" fill="#686868"/>
</svg>
