<svg width="20" height="18" viewBox="0 0 20 18" fill="none" xmlns="http://www.w3.org/2000/svg">
<mask id="path-1-inside-1_2_811" fill="white">
<path fill-rule="evenodd" clip-rule="evenodd" d="M4.92678 0.0257811C3.68139 0.184412 2.63952 0.703671 1.75474 1.60682C0.963151 2.4148 0.486372 3.27158 0.209315 4.38406C-0.271802 6.31586 0.078016 8.21805 1.24286 10.0039C1.98978 11.149 2.953 12.2001 4.72459 13.803C5.85154 14.8227 9.28618 17.7949 9.45292 17.8947C9.61001 17.9887 9.66839 18 10 18C10.3314 18 10.3901 17.9887 10.5471 17.8949C10.7143 17.7949 14.1567 14.8157 15.2754 13.8027C17.0519 12.1943 18.0112 11.1475 18.7571 10.0039C19.922 8.21805 20.2718 6.31586 19.7907 4.38406C19.5136 3.27158 19.0369 2.4148 18.2453 1.60682C17.4565 0.801656 16.612 0.337019 15.5049 0.0990718C14.952 -0.0198027 13.9278 -0.0301878 13.4409 0.0780637C12.0916 0.378124 11.0541 1.06461 10.1075 2.28384L10 2.42226L9.89254 2.28384C8.96235 1.08582 7.94068 0.399409 6.63937 0.0981601C6.25094 0.00826111 5.36014 -0.029395 4.92678 0.0257811Z"/>
</mask>
<path fill-rule="evenodd" clip-rule="evenodd" d="M4.92678 0.0257811C3.68139 0.184412 2.63952 0.703671 1.75474 1.60682C0.963151 2.4148 0.486372 3.27158 0.209315 4.38406C-0.271802 6.31586 0.078016 8.21805 1.24286 10.0039C1.98978 11.149 2.953 12.2001 4.72459 13.803C5.85154 14.8227 9.28618 17.7949 9.45292 17.8947C9.61001 17.9887 9.66839 18 10 18C10.3314 18 10.3901 17.9887 10.5471 17.8949C10.7143 17.7949 14.1567 14.8157 15.2754 13.8027C17.0519 12.1943 18.0112 11.1475 18.7571 10.0039C19.922 8.21805 20.2718 6.31586 19.7907 4.38406C19.5136 3.27158 19.0369 2.4148 18.2453 1.60682C17.4565 0.801656 16.612 0.337019 15.5049 0.0990718C14.952 -0.0198027 13.9278 -0.0301878 13.4409 0.0780637C12.0916 0.378124 11.0541 1.06461 10.1075 2.28384L10 2.42226L9.89254 2.28384C8.96235 1.08582 7.94068 0.399409 6.63937 0.0981601C6.25094 0.00826111 5.36014 -0.029395 4.92678 0.0257811Z" fill="black" fill-opacity="0.3"/>
<path d="M4.92678 0.0257811L4.80048 -0.966211L4.80042 -0.966204L4.92678 0.0257811ZM1.75474 1.60682L2.46905 2.30664L2.46907 2.30663L1.75474 1.60682ZM0.209315 4.38406L1.17967 4.62573L1.17968 4.62572L0.209315 4.38406ZM1.24286 10.0039L0.405284 10.5503L0.405292 10.5503L1.24286 10.0039ZM4.72459 13.803L4.05366 14.5446L4.05367 14.5446L4.72459 13.803ZM9.45292 17.8947L8.93932 18.7528L8.93936 18.7528L9.45292 17.8947ZM10.5471 17.8949L11.0601 18.7532L11.0602 18.7532L10.5471 17.8949ZM15.2754 13.8027L14.6042 13.0614L14.6042 13.0615L15.2754 13.8027ZM18.7571 10.0039L19.5947 10.5503L19.5947 10.5503L18.7571 10.0039ZM19.7907 4.38406L18.8203 4.62572L18.8203 4.62573L19.7907 4.38406ZM18.2453 1.60682L17.5309 2.30664L17.5309 2.30664L18.2453 1.60682ZM15.5049 0.0990718L15.2947 1.07673L15.2948 1.07675L15.5049 0.0990718ZM13.4409 0.0780637L13.2238 -0.898102L13.2238 -0.89809L13.4409 0.0780637ZM10.1075 2.28384L9.31761 1.67055L9.31757 1.67059L10.1075 2.28384ZM10 2.42226L9.21011 3.0355L10 4.05292L10.7899 3.03551L10 2.42226ZM9.89254 2.28384L10.6824 1.67059L10.6824 1.67056L9.89254 2.28384ZM6.63937 0.0981601L6.8649 -0.876075L6.86485 -0.876087L6.63937 0.0981601ZM4.80042 -0.966204C3.33007 -0.778917 2.08152 -0.155715 1.0404 0.907018L2.46907 2.30663C3.19752 1.56306 4.03272 1.14774 5.05313 1.01777L4.80042 -0.966204ZM1.04042 0.907001C0.122462 1.84397 -0.441566 2.85957 -0.761045 4.1424L1.17968 4.62572C1.41431 3.68359 1.80384 2.98564 2.46905 2.30664L1.04042 0.907001ZM-0.761044 4.14239C-1.31449 6.36461 -0.899331 8.55008 0.405284 10.5503L2.08045 9.45763C1.05536 7.88602 0.770887 6.26711 1.17967 4.62573L-0.761044 4.14239ZM0.405292 10.5503C1.22147 11.8015 2.2582 12.92 4.05366 14.5446L5.39553 13.0615C3.64779 11.4802 2.7581 10.4965 2.08044 9.45761L0.405292 10.5503ZM4.05367 14.5446C4.62616 15.0626 5.77401 16.0669 6.79447 16.95C7.30584 17.3925 7.78844 17.8074 8.15458 18.1186C8.33728 18.2739 8.49331 18.4054 8.61027 18.5023C8.66834 18.5503 8.72019 18.5927 8.7624 18.6263C8.77912 18.6396 8.8596 18.705 8.93932 18.7528L9.96652 17.0367C10.0254 17.0719 10.0595 17.1025 10.007 17.0608C9.98007 17.0393 9.93994 17.0066 9.88593 16.9619C9.77874 16.8731 9.63028 16.7481 9.44992 16.5948C9.08996 16.2888 8.6122 15.8781 8.1032 15.4376C7.08292 14.5547 5.94997 13.5632 5.39552 13.0615L4.05367 14.5446ZM8.93936 18.7528C9.05704 18.8232 9.22817 18.9177 9.47201 18.9646C9.65774 19.0003 9.8529 19 10 19V17C9.96095 17 9.92914 16.9998 9.90234 16.9994C9.87545 16.999 9.85648 16.9985 9.84293 16.9978C9.82941 16.9972 9.82445 16.9967 9.8254 16.9968C9.82668 16.9969 9.83566 16.9979 9.85002 17.0006C9.86498 17.0035 9.8834 17.0079 9.90399 17.0143C9.92464 17.0207 9.94283 17.0277 9.95771 17.0342C9.97194 17.0404 9.98072 17.0451 9.98212 17.0458C9.98296 17.0463 9.97892 17.0441 9.96648 17.0367L8.93936 18.7528ZM10 19C10.1472 19 10.3421 19.0003 10.5277 18.9647C10.7712 18.9179 10.9422 18.8237 11.0601 18.7532L10.034 17.0365C10.0217 17.0439 10.0177 17.046 10.0185 17.0456C10.02 17.0448 10.0288 17.0401 10.043 17.0339C10.0578 17.0275 10.076 17.0205 10.0965 17.0141C10.117 17.0078 10.1354 17.0034 10.1502 17.0006C10.1645 16.9979 10.1734 16.9969 10.1746 16.9968C10.1755 16.9967 10.1705 16.9972 10.157 16.9978C10.1434 16.9985 10.1245 16.999 10.0976 16.9994C10.0708 16.9998 10.039 17 10 17V19ZM11.0602 18.7532C11.1402 18.7054 11.221 18.6397 11.2377 18.6264C11.28 18.5928 11.332 18.5503 11.3902 18.5021C11.5074 18.405 11.6637 18.2733 11.8468 18.1177C12.2136 17.8058 12.697 17.3903 13.2088 16.9473C14.2302 16.0634 15.3781 15.0588 15.9466 14.544L14.6042 13.0615C14.054 13.5596 12.9213 14.5511 11.9 15.435C11.3905 15.876 10.912 16.2873 10.5514 16.5938C10.3707 16.7474 10.222 16.8727 10.1146 16.9617C10.0604 17.0065 10.0202 17.0393 9.9932 17.0608C9.9406 17.1026 9.97484 17.0719 10.0339 17.0366L11.0602 18.7532ZM15.9466 14.544C17.7466 12.9143 18.7795 11.8001 19.5947 10.5503L17.9196 9.45762C17.243 10.4949 16.3572 11.4742 14.6042 13.0614L15.9466 14.544ZM19.5947 10.5503C20.8993 8.55008 21.3145 6.36461 20.761 4.14239L18.8203 4.62573C19.2291 6.26711 18.9446 7.88602 17.9196 9.45763L19.5947 10.5503ZM20.761 4.1424C20.4416 2.85957 19.8775 1.84397 18.9596 0.907001L17.5309 2.30664C18.1962 2.98564 18.5857 3.68359 18.8203 4.62572L20.761 4.1424ZM18.9596 0.907009C18.0329 -0.0388759 17.0129 -0.599659 15.715 -0.878601L15.2948 1.07675C16.2111 1.2737 16.88 1.64219 17.5309 2.30664L18.9596 0.907009ZM15.7151 -0.87859C15.3462 -0.957902 14.8773 -0.992294 14.4583 -0.996553C14.0462 -1.00074 13.5787 -0.977007 13.2238 -0.898102L13.6579 1.05423C13.7899 1.02488 14.0779 0.999684 14.438 1.00334C14.791 1.00693 15.1107 1.03717 15.2947 1.07673L15.7151 -0.87859ZM13.2238 -0.89809C11.6204 -0.541525 10.3894 0.290216 9.31761 1.67055L10.8973 2.89713C11.7189 1.83901 12.5627 1.29777 13.6579 1.05422L13.2238 -0.89809ZM9.31757 1.67059L9.21011 1.80901L10.7899 3.03551L10.8974 2.89709L9.31757 1.67059ZM10.7899 1.80901L10.6824 1.67059L9.10265 2.89709L9.21011 3.0355L10.7899 1.80901ZM10.6824 1.67056C9.63138 0.316921 8.42032 -0.516 6.8649 -0.876075L6.41384 1.0724C7.46103 1.31482 8.29331 1.85472 9.10267 2.89712L10.6824 1.67056ZM6.86485 -0.876087C6.57802 -0.942473 6.18344 -0.977116 5.84216 -0.991541C5.49613 -1.00617 5.09984 -1.00433 4.80048 -0.966211L5.05308 1.01777C5.18708 1.00071 5.45288 0.993792 5.7577 1.00668C6.06726 1.01976 6.31229 1.04889 6.41389 1.07241L6.86485 -0.876087Z" fill="white" mask="url(#path-1-inside-1_2_811)"/>
</svg>
