<svg width="117" height="44" viewBox="0 0 117 44" fill="none" xmlns="http://www.w3.org/2000/svg">
<path d="M10.592 34.48C8.93867 34.48 7.44533 34.1973 6.112 33.632C4.78933 33.056 3.696 32.24 2.832 31.184C1.97867 30.1173 1.424 28.8533 1.168 27.392L4.656 26.864C5.008 28.272 5.744 29.3707 6.864 30.16C7.984 30.9387 9.29067 31.328 10.784 31.328C11.712 31.328 12.5653 31.184 13.344 30.896C14.1227 30.5973 14.7467 30.176 15.216 29.632C15.696 29.0773 15.936 28.416 15.936 27.648C15.936 27.232 15.8613 26.864 15.712 26.544C15.5733 26.224 15.376 25.9467 15.12 25.712C14.8747 25.4667 14.5707 25.2587 14.208 25.088C13.856 24.9067 13.4667 24.752 13.04 24.624L7.136 22.88C6.56 22.7093 5.97333 22.4907 5.376 22.224C4.77867 21.9467 4.22933 21.5893 3.728 21.152C3.23733 20.704 2.83733 20.1547 2.528 19.504C2.21867 18.8427 2.064 18.0427 2.064 17.104C2.064 15.6853 2.42667 14.4853 3.152 13.504C3.888 12.512 4.88 11.7653 6.128 11.264C7.376 10.752 8.77333 10.496 10.32 10.496C11.8773 10.5173 13.2693 10.7947 14.496 11.328C15.7333 11.8613 16.7573 12.6293 17.568 13.632C18.3893 14.624 18.9547 15.8293 19.264 17.248L15.68 17.856C15.52 16.992 15.1787 16.2507 14.656 15.632C14.1333 15.0027 13.4933 14.5227 12.736 14.192C11.9787 13.8507 11.1573 13.6747 10.272 13.664C9.41867 13.6427 8.63467 13.7707 7.92 14.048C7.216 14.3253 6.65067 14.7147 6.224 15.216C5.808 15.7173 5.6 16.2933 5.6 16.944C5.6 17.584 5.78667 18.1013 6.16 18.496C6.53333 18.8907 6.992 19.2053 7.536 19.44C8.09067 19.664 8.64 19.8507 9.184 20L13.44 21.2C13.9733 21.3493 14.576 21.552 15.248 21.808C15.9307 22.0533 16.5867 22.4 17.216 22.848C17.856 23.296 18.384 23.8933 18.8 24.64C19.216 25.376 19.424 26.304 19.424 27.424C19.424 28.5867 19.1893 29.6107 18.72 30.496C18.2507 31.3707 17.6053 32.1067 16.784 32.704C15.9733 33.2907 15.0347 33.7333 13.968 34.032C12.9013 34.3307 11.776 34.48 10.592 34.48ZM21.2338 34L28.7218 10.96H33.5378L41.0258 34H37.5538L30.6578 12.976H31.5218L24.7057 34H21.2338ZM25.1218 28.8V25.664H37.1538V28.8H25.1218ZM43.8963 34V10.96H51.1123C51.3256 10.96 51.7203 10.9653 52.2963 10.976C52.8829 10.9867 53.4429 11.0293 53.9763 11.104C55.7789 11.328 57.2936 11.9733 58.5203 13.04C59.7576 14.1067 60.6909 15.4613 61.3203 17.104C61.9496 18.736 62.2643 20.528 62.2643 22.48C62.2643 24.4427 61.9496 26.2453 61.3203 27.888C60.6909 29.52 59.7576 30.8693 58.5203 31.936C57.2936 32.992 55.7789 33.632 53.9763 33.856C53.4429 33.9307 52.8829 33.9733 52.2963 33.984C51.7203 33.9947 51.3256 34 51.1123 34H43.8963ZM47.3203 30.816H51.1123C51.4749 30.816 51.9069 30.8053 52.4083 30.784C52.9096 30.7627 53.3523 30.72 53.7363 30.656C54.9096 30.432 55.8589 29.9253 56.5843 29.136C57.3203 28.336 57.8589 27.3547 58.2003 26.192C58.5416 25.0293 58.7123 23.792 58.7123 22.48C58.7123 21.1253 58.5363 19.872 58.1842 18.72C57.8322 17.5573 57.2883 16.5867 56.5523 15.808C55.8269 15.0187 54.8883 14.5173 53.7363 14.304C53.3523 14.2293 52.9043 14.1867 52.3923 14.176C51.8909 14.1547 51.4643 14.144 51.1123 14.144H47.3203V30.816ZM65.99 34V10.96H75.302C75.526 10.96 75.8033 10.9707 76.134 10.992C76.4647 11.0027 76.7793 11.0347 77.078 11.088C78.358 11.2907 79.4247 11.728 80.278 12.4C81.142 13.072 81.7873 13.92 82.214 14.944C82.6407 15.968 82.854 17.0987 82.854 18.336C82.854 20.1707 82.3847 21.7547 81.446 23.088C80.5073 24.4107 79.0993 25.2373 77.222 25.568L75.862 25.728H69.334V34H65.99ZM79.462 34L74.918 24.624L78.294 23.76L83.286 34H79.462ZM69.334 22.56H75.174C75.3873 22.56 75.622 22.5493 75.878 22.528C76.1447 22.5067 76.3953 22.4693 76.63 22.416C77.3127 22.256 77.862 21.9627 78.278 21.536C78.694 21.0987 78.9927 20.5973 79.174 20.032C79.3553 19.4667 79.446 18.9013 79.446 18.336C79.446 17.7707 79.3553 17.2107 79.174 16.656C78.9927 16.0907 78.694 15.5947 78.278 15.168C77.862 14.7307 77.3127 14.432 76.63 14.272C76.3953 14.208 76.1447 14.1653 75.878 14.144C75.622 14.1227 75.3873 14.112 75.174 14.112H69.334V22.56ZM87.1225 34V10.96H90.4665V34H87.1225ZM104.887 34.48C102.583 34.48 100.621 33.9787 98.9993 32.976C97.3779 31.9627 96.1353 30.5547 95.2713 28.752C94.4179 26.9493 93.9913 24.8587 93.9913 22.48C93.9913 20.1013 94.4179 18.0107 95.2713 16.208C96.1353 14.4053 97.3779 13.0027 98.9993 12C100.621 10.9867 102.583 10.48 104.887 10.48C107.543 10.48 109.741 11.152 111.479 12.496C113.229 13.84 114.445 15.648 115.127 17.92L111.735 18.832C111.287 17.2213 110.487 15.9573 109.335 15.04C108.194 14.1227 106.711 13.664 104.887 13.664C103.255 13.664 101.895 14.032 100.807 14.768C99.7193 15.504 98.8979 16.5333 98.3433 17.856C97.7993 19.1787 97.5273 20.72 97.5273 22.48C97.5166 24.24 97.7833 25.7813 98.3273 27.104C98.8819 28.4267 99.7033 29.456 100.791 30.192C101.89 30.928 103.255 31.296 104.887 31.296C106.711 31.296 108.194 30.8373 109.335 29.92C110.487 28.992 111.287 27.728 111.735 26.128L115.127 27.04C114.445 29.312 113.229 31.12 111.479 32.464C109.741 33.808 107.543 34.48 104.887 34.48Z" fill="#C9B087"/>
<rect x="1" y="2" width="33" height="3" fill="#C9B087"/>
<rect x="87" y="2" width="28" height="3" fill="#C9B087"/>
</svg>
