<svg width="11" height="13" viewBox="0 0 11 13" fill="none" xmlns="http://www.w3.org/2000/svg">
<path fillRule="evenodd" clipRule="evenodd" d="M4.94923 0.0234066C4.22435 0.0967454 3.3585 0.372393 2.73605 0.727971C0.0208961 2.27905 -0.824933 5.7488 0.887293 8.31187C1.24634 8.8493 1.64416 9.27069 1.83023 9.31068C2.10434 9.36956 2.33013 9.1765 2.3327 8.88107C2.334 8.72908 2.29206 8.65152 2.09142 8.43474C1.59735 7.90116 1.21491 7.21332 1.0196 6.50723C0.858478 5.92465 0.857623 4.85019 1.01784 4.27248C1.38785 2.93827 2.26918 1.89426 3.51605 1.31316C4.28303 0.95571 4.53547 0.902636 5.47725 0.901111C6.3962 0.899636 6.71738 0.96112 7.39414 1.26795C8.70452 1.86209 9.60899 2.91122 9.98544 4.27371C10.1454 4.85265 10.1453 5.92839 9.98519 6.50723C9.8653 6.94067 9.56725 7.58493 9.31933 7.94641C9.23143 8.07469 8.19547 9.12593 7.01729 10.2825L4.87511 12.3855L5.18976 12.6927L5.5044 13L7.70859 10.8357C9.61025 8.96848 9.94812 8.61462 10.1706 8.25708C12.0856 5.17965 10.5374 1.20617 7.03615 0.212779C6.3966 0.0313258 5.59231 -0.0416687 4.94923 0.0234066ZM6.14134 3.96049C5.8449 4.46845 5.5828 4.91389 5.55892 4.95034C5.52844 4.99692 5.34615 4.72693 4.94667 4.04347C4.52778 3.32675 4.3659 3.08893 4.33241 3.14097C4.30742 3.17983 3.99775 3.93102 3.64428 4.81025L3.00161 6.40885L2.79368 6.42395L2.58574 6.4391V6.68219V6.92532H3.61663H4.64751V6.67938C4.64751 6.43891 4.64414 6.43345 4.49665 6.43345C4.41368 6.43345 4.34579 6.42366 4.34579 6.41166C4.34579 6.36793 4.61332 5.67 4.64314 5.63602C4.66003 5.61678 4.85158 5.8882 5.06882 6.2392C5.28606 6.59021 5.48233 6.88858 5.50496 6.90225C5.52759 6.91593 5.73261 6.62744 5.96061 6.26109C6.18861 5.89479 6.39081 5.61216 6.40997 5.63306C6.42913 5.65392 6.50275 5.84255 6.57356 6.05224L6.70239 6.43345H6.55495C6.41158 6.43345 6.40756 6.44019 6.40756 6.67938V6.92532H7.43845H8.46933V6.68219V6.4391L8.25662 6.42395L8.0439 6.40885L7.36211 4.7229L6.68037 3.03694L6.14134 3.96049Z" fill="#D9232E"/>
</svg>
