<svg width="23" height="23" viewBox="0 0 23 23" fill="none" xmlns="http://www.w3.org/2000/svg">
<path fill-rule="evenodd" clip-rule="evenodd" d="M4.08622 0.0507014C3.71701 0.143787 3.34374 0.352892 2.96194 0.680579C2.53857 1.04393 1.01476 2.58672 0.766721 2.90316C-0.238597 4.18563 -0.255475 6.17986 0.717168 8.75117C1.90544 11.8925 4.13162 15.0769 6.94683 17.6624C10.8292 21.228 16.0246 23.5388 18.7032 22.8914C19.0999 22.7955 19.7595 22.489 20.0625 22.2598C20.3667 22.0298 22.4085 19.9425 22.5981 19.6678C22.9485 19.16 23.0837 18.4803 22.9483 17.907C22.7969 17.2659 22.747 17.2046 20.7814 15.2461C18.7995 13.2713 18.7388 13.2226 18.0825 13.0846C17.5657 12.976 17.0377 13.0718 16.527 13.3668C16.4079 13.4356 15.849 13.9457 15.285 14.5004L14.2596 15.509L13.9311 15.3388C13.1242 14.9208 12.529 14.5194 11.6395 13.7933C10.726 13.0476 9.45295 11.7366 8.75014 10.8179C8.24243 10.1543 7.49042 8.92795 7.48826 8.76008C7.48785 8.72788 7.83937 8.35963 8.26941 7.94178C9.17066 7.06606 9.52787 6.65639 9.72919 6.26773C9.98354 5.77662 10.0322 5.15821 9.85705 4.64408C9.6791 4.12173 9.51103 3.92386 7.78503 2.20448C6.07871 0.504751 5.81691 0.281301 5.33248 0.11105C4.99153 -0.00874732 4.43006 -0.0359534 4.08622 0.0507014ZM5.13157 1.31127C5.25983 1.38434 5.97929 2.06616 6.94977 3.03434C8.707 4.78749 8.77234 4.87001 8.77004 5.33355C8.76797 5.74474 8.66191 5.88675 7.48199 7.05855C6.88776 7.64863 6.36962 8.19302 6.33058 8.26825C6.27977 8.36615 6.26456 8.49274 6.27701 8.713C6.29258 8.98722 6.32837 9.0879 6.60411 9.63297C7.22659 10.8633 8.04728 11.9473 9.40484 13.3323C10.7562 14.711 12.1006 15.737 13.4844 16.4455C13.9789 16.6987 14.0723 16.7315 14.2968 16.7301C14.4512 16.7291 14.6121 16.6965 14.7083 16.6467C14.7952 16.6017 15.3538 16.0829 15.9496 15.4938C16.7187 14.7334 17.0918 14.3962 17.2358 14.331C17.5064 14.2087 17.8593 14.2091 18.1061 14.3319C18.3795 14.468 21.5665 17.6404 21.7092 17.9185C21.7867 18.0696 21.8163 18.2016 21.8163 18.397C21.8163 18.8581 21.7227 18.9852 20.4402 20.2676C19.1702 21.5375 19.0523 21.6235 18.376 21.7734C17.7246 21.9178 16.6276 21.8029 15.5158 21.4737C13.8253 20.9733 11.548 19.7757 9.6763 18.4026C6.06851 15.7561 2.97263 11.7167 1.68728 7.97874C1.0764 6.20221 1.00857 4.92905 1.47445 3.98448C1.62279 3.68369 1.75475 3.53214 2.69441 2.58316C3.27388 1.9979 3.82677 1.4647 3.92303 1.39824C4.32663 1.11952 4.74245 1.08962 5.13157 1.31127Z" fill="#C9B087"/>
</svg>
