<svg width="35" height="35" viewBox="0 0 35 35" fill="none" xmlns="http://www.w3.org/2000/svg">
<path fill-rule="evenodd" clip-rule="evenodd" d="M16.2653 0.0171793C16.1334 0.0326572 15.7326 0.077036 15.3746 0.115868C13.114 0.361047 10.6107 1.2089 8.59075 2.41364C6.01989 3.94683 3.93036 6.03545 2.3965 8.60518C1.2011 10.6078 0.407139 12.935 0.0831954 15.386C-0.0277318 16.2252 -0.0277318 18.793 0.0831954 19.6322C0.407139 22.0832 1.2011 24.4104 2.3965 26.413C3.93036 28.9827 6.01989 31.0714 8.59075 32.6046C10.5942 33.7994 12.9225 34.593 15.3746 34.9168C16.2141 35.0277 18.783 35.0277 19.6226 34.9168C23.8889 34.3534 27.5053 32.4804 30.4566 29.3057C32.0894 27.5493 33.3669 25.3646 34.1508 22.988C34.7688 21.1145 35 19.6228 35 17.5091C35 15.9454 34.9339 15.2546 34.6532 13.8793C33.6904 9.16402 30.6595 4.95015 26.4064 2.41364C24.4233 1.23096 22.0586 0.420561 19.6911 0.112238C19.0902 0.0340269 16.6901 -0.0326099 16.2653 0.0171793ZM19.0402 7.71267C20.7306 8.15378 22.2469 9.39502 23.0175 10.9687C23.4948 11.9435 23.6183 12.4996 23.6183 13.6739C23.6183 14.4816 23.5905 14.7692 23.4688 15.2148C23.0005 16.9307 21.7785 18.4191 20.2049 19.1899C19.5834 19.4944 18.6792 19.7691 18.2984 19.7691C17.8914 19.7691 18.1767 19.8405 18.982 19.9401C22.6119 20.3893 25.7962 22.3652 27.8058 25.4155C28.3381 26.2234 29.0336 27.6657 28.977 27.844C28.9533 27.9188 28.6217 28.2768 28.24 28.6394C25.9127 30.8514 23.1146 32.2539 19.9651 32.7871C19.1907 32.9183 18.7893 32.9438 17.4986 32.9438C16.2079 32.9438 15.8064 32.9183 15.032 32.7871C11.8825 32.2539 9.0844 30.8514 6.75712 28.6394C6.37549 28.2768 6.04387 27.9188 6.0201 27.844C5.9635 27.6657 6.65901 26.2234 7.19138 25.4155C9.20095 22.3652 12.3852 20.3893 16.0151 19.9401C16.8205 19.8405 17.1057 19.7691 16.6988 19.7691C16.3179 19.7691 15.4137 19.4944 14.7922 19.1899C13.2187 18.4191 11.9966 16.9307 11.5283 15.2148C11.4067 14.7692 11.3788 14.4816 11.3788 13.6739C11.3788 12.4994 11.5023 11.9432 11.9798 10.9687C12.8278 9.23778 14.4879 7.97332 16.3841 7.61391C17.1 7.47824 18.3147 7.52337 19.0402 7.71267Z" fill="#686868"/>
</svg>
