<svg width="10" height="14" viewBox="0 0 10 14" fill="none" xmlns="http://www.w3.org/2000/svg">
<path fill-rule="evenodd" clip-rule="evenodd" d="M5.68804 0.041536C7.57932 0.309852 9.15231 1.58451 9.74524 3.32933C10.2614 4.84816 10.0106 6.26716 8.83342 8.48926C8.12973 9.81754 7.27833 11.1087 6.09612 12.6406C5.60102 13.2821 5.01372 14 4.98399 14C4.97196 14 4.81224 13.8125 4.62905 13.5834C2.44896 10.8567 0.79458 8.13163 0.240652 6.35512C0.0306234 5.68161 -0.000941277 5.48022 2.09808e-05 4.8203C0.000743866 4.30875 0.0108843 4.17603 0.0692291 3.91402C0.484292 2.05034 1.85309 0.640263 3.71816 0.155113C4.30095 0.00350169 5.09656 -0.0423676 5.68804 0.041536ZM4.40843 2.81898C3.68672 3.03219 3.15623 3.55058 2.92884 4.26484C2.82957 4.57663 2.82969 5.0647 2.92911 5.37576C3.17449 6.14364 3.71819 6.65185 4.49701 6.84141C4.98769 6.96084 5.61071 6.87664 6.04726 6.63192C6.4934 6.38181 6.82939 5.98565 7.01832 5.48703C7.09277 5.2906 7.09927 5.23821 7.09945 4.83492C7.09963 4.42934 7.09331 4.37883 7.01528 4.16252C6.82563 3.63662 6.42814 3.1978 5.92954 2.96384C5.56052 2.79068 5.31892 2.74215 4.90383 2.75788C4.71953 2.76487 4.49999 2.79194 4.40843 2.81898Z" fill="#C9B087"/>
</svg>
