<svg width="15" height="15" viewBox="0 0 15 15" fill="none" xmlns="http://www.w3.org/2000/svg">
<path fill-rule="evenodd" clip-rule="evenodd" d="M5.40637 0.0316198C3.48305 0.24868 1.83651 1.29645 0.851991 2.92975C0.447987 3.59998 0.197469 4.28509 0.0535045 5.11363C-0.023224 5.55508 -0.0161928 6.57809 0.0666588 7.03132C0.418749 8.95744 1.55409 10.51 3.25193 11.3871C4.16022 11.8564 4.98241 12.0543 6.02011 12.0536C7.284 12.0527 8.32029 11.7401 9.37366 11.042L9.72426 10.8097L11.7614 12.8417C13.1354 14.2123 13.8366 14.8917 13.9156 14.9289C14.0744 15.0037 14.4041 15.0043 14.5455 14.9301C14.898 14.7452 15.0595 14.3657 14.9412 14.0007C14.8927 13.8511 14.7826 13.7353 12.841 11.7897L10.7921 9.7365L11.0184 9.40196C12.1052 7.79556 12.3439 5.78725 11.6692 3.92585C11.4481 3.31577 11.026 2.60693 10.5689 2.07798C9.80781 1.19723 8.73051 0.516805 7.62651 0.219589C6.95104 0.0377428 6.03739 -0.0396009 5.40637 0.0316198ZM6.45338 1.52535C7.56774 1.64737 8.4371 2.06107 9.2154 2.83975C10.0092 3.63388 10.4314 4.53516 10.5368 5.66025C10.631 6.66599 10.3615 7.69053 9.76741 8.58543C9.5207 8.95706 8.94194 9.53582 8.57031 9.78253C7.06759 10.7801 5.22144 10.8326 3.69402 9.92113C2.59181 9.26336 1.81641 8.15643 1.56159 6.87686C1.46837 6.4087 1.46837 5.66175 1.56159 5.19358C1.82438 3.87405 2.63708 2.74844 3.80784 2.08243C4.5903 1.63735 5.57752 1.42946 6.45338 1.52535Z" fill="black"/>
</svg>
