<svg width="12" height="6" viewBox="0 0 12 6" fill="none" xmlns="http://www.w3.org/2000/svg">
<path fill-rule="evenodd" clip-rule="evenodd" d="M11.9618 0.593452C11.8963 0.718955 6.27938 5.92329 6.16023 5.96892C6.04327 6.01371 5.94051 6.01029 5.81353 5.95736C5.65982 5.89328 0.139735 0.773479 0.0549953 0.616394C-0.0189789 0.479225 -0.0184154 0.380234 0.057224 0.239408C0.154418 0.0583797 0.345333 -0.0231995 0.570727 0.0199842C0.687693 0.0423814 0.714313 0.0662369 3.34504 2.50534L4.64151 3.70737C5.40854 4.41853 6.59399 4.41855 7.36104 3.70741L8.65739 2.50557C10.8308 0.490586 11.33 0.0382236 11.4044 0.0163923C11.5193 -0.0173451 11.6818 0.00237499 11.7872 0.0628409C11.9726 0.16919 12.0541 0.416734 11.9618 0.593452Z" fill="#222222"/>
</svg>
