<svg width="20" height="23" viewBox="0 0 10 15" fill="#C9B087" xmlns="http://www.w3.org/2000/svg">
<path opacity="0.8" fill-rule="evenodd" clip-rule="evenodd" d="M4.31196 0.0445029C2.42068 0.331985 0.847688 1.69769 0.254763 3.56714C-0.261402 5.19446 -0.0106312 6.71481 1.16658 9.09563C1.87027 10.5188 2.72167 11.9022 3.90388 13.5435C4.39898 14.2309 4.98628 15 5.01601 15C5.02804 15 5.18776 14.7992 5.37095 14.5536C7.55104 11.6321 9.20542 8.71246 9.75935 6.80906C9.96938 6.08744 10.0009 5.87166 9.99998 5.16461C9.99926 4.61652 9.98912 4.47431 9.93077 4.1936C9.51571 2.19679 8.14691 0.685996 6.28184 0.166192C5.69905 0.00375181 4.90344 -0.0453938 4.31196 0.0445029ZM5.59157 3.02034C6.31328 3.24877 6.84377 3.80419 7.07116 4.56947C7.17043 4.90353 7.17031 5.42647 7.07089 5.75974C6.82551 6.58247 6.28181 7.12699 5.50299 7.33009C5.01231 7.45804 4.38929 7.36783 3.95274 7.10563C3.5066 6.83766 3.17061 6.4132 2.98168 5.87896C2.90723 5.6685 2.90073 5.61237 2.90055 5.18027C2.90037 4.74573 2.90669 4.6916 2.98472 4.45984C3.17437 3.89637 3.57186 3.42622 4.07046 3.17554C4.43948 2.99001 4.68108 2.93802 5.09617 2.95487C5.28047 2.96236 5.50001 2.99136 5.59157 3.02034Z" />
</svg>
